Coordinates
version=1
nRows=13
nColumns=40
inDegrees=yes

Units are S.I. units (second, meters, Newtons, ...)
Angles are in degrees.

endheader
time	pelvis_tilt	pelvis_list	pelvis_rotation	pelvis_tx	pelvis_ty	pelvis_tz	hip_flexion_r	hip_adduction_r	hip_rotation_r	knee_angle_r	knee_angle_r_beta	ankle_angle_r	subtalar_angle_r	mtp_angle_r	hip_flexion_l	hip_adduction_l	hip_rotation_l	knee_angle_l	knee_angle_l_beta	ankle_angle_l	subtalar_angle_l	mtp_angle_l	lumbar_extension	lumbar_bending	lumbar_rotation	arm_flex_r	arm_add_r	arm_rot_r	elbow_flex_r	pro_sup_r	wrist_flex_r	wrist_dev_r	arm_flex_l	arm_add_l	arm_rot_l	elbow_flex_l	pro_sup_l	wrist_flex_l	wrist_dev_l
     23.09000000	     -3.77495415	     -5.77891294	      2.45121248	      0.91425716	      0.93161057	      0.49893595	     12.55864617	      4.21104576	    -18.08369051	     15.94018817	     15.94018817	     10.03391437	      4.36438609	     -2.37826102	     26.80199352	    -13.34656466	      0.31981219	     64.05930037	     64.05930037	     10.61113886	    -17.63917583	     10.13073500	     -8.91682745	      7.24539811	      3.87903541	     18.37602773	    -16.99980714	     -9.72867525	     46.34158437	     44.83994028	      0.00000000	      0.00000000	      3.21050198	     -8.22549785	      3.15877191	     33.48784765	     44.63855035	      0.00000000	      0.00000000
     23.10200000	     -3.81512142	     -5.67097970	      2.54794227	      0.91405878	      0.93205379	      0.49892486	     11.71415821	      4.22964251	    -18.11837820	     15.23942598	     15.23942598	     10.25185367	      4.70195575	     -2.43406822	     28.02327945	    -13.20257623	      0.14174389	     62.22323143	     62.22323143	     10.71578152	    -18.12016171	     10.49092429	     -8.91477307	      7.15544447	      3.80749823	     20.41979608	    -17.08453093	     -9.87560270	     47.59594017	     44.82480361	      0.00000000	      0.00000000	      1.84020943	     -8.14860576	      3.19129975	     32.42728747	     44.63481326	      0.00000000	      0.00000000
     23.11400000	     -3.81522405	     -5.63622977	      2.60045897	      0.91386549	      0.93238392	      0.49896599	     10.90899020	      4.33254551	    -18.04138419	     14.67607688	     14.67607688	     10.48137263	      4.85212929	     -2.54462764	     29.05480098	    -13.17489888	     -0.12301294	     60.19003702	     60.19003702	     10.89971509	    -18.38686506	     10.99924652	     -9.02164033	      7.19359992	      3.81531826	     22.46715173	    -17.18861816	    -10.01318147	     48.95779260	     44.80500213	      0.00000000	      0.00000000	      0.47061335	     -8.04436154	      3.25297902	     31.47972695	     44.62634111	      0.00000000	      0.00000000
     23.12600000	     -3.81603580	     -5.61247377	      2.66934104	      0.91366612	      0.93262224	      0.49893278	     10.12069623	      4.43988475	    -17.94210694	     14.12267138	     14.12267138	     10.68288350	      4.95621412	     -2.67602466	     29.94176633	    -13.10634656	     -0.38168635	     57.92783580	     57.92783580	     11.08819035	    -18.56068377	     11.70663825	     -9.10709504	      7.22569659	      3.86438518	     24.44743211	    -17.31514529	    -10.14878676	     50.34084919	     44.78412563	      0.00000000	      0.00000000	     -0.84283823	     -7.91993630	      3.34131526	     30.61114235	     44.61430127	      0.00000000	      0.00000000
     23.13800000	     -3.85055349	     -5.56444509	      2.71684281	      0.91338292	      0.93272210	      0.49872388	      9.41294828	      4.49567317	    -17.84500486	     13.63668669	     13.63668669	     10.90742333	      5.03742992	     -2.79849139	     30.72534739	    -12.95863046	     -0.66256278	     55.44571928	     55.44571928	     11.20208702	    -18.63961274	     12.42189922	     -9.17077163	      7.26045667	      4.03095437	     26.32135867	    -17.50896580	    -10.28898798	     51.59707712	     44.76434772	      0.00000000	      0.00000000	     -2.05556317	     -7.77549625	      3.44586257	     29.88873463	     44.59517943	      0.00000000	      0.00000000
     23.15000000	     -3.87368424	     -5.54018438	      2.78924776	      0.91311629	      0.93273233	      0.49837843	      8.67699966	      4.56907369	    -17.77438370	     13.11114896	     13.11114896	     11.10538670	      5.16800584	     -2.93414211	     31.38523141	    -12.72776099	     -0.82008848	     52.77293344	     52.77293344	     11.32946001	    -18.65556829	     13.16974034	     -9.25228529	      7.31021016	      4.06412414	     28.16028219	    -17.56499417	    -10.42093857	     52.99202657	     44.73955876	      0.00000000	      0.00000000	     -3.25736454	     -7.64264101	      3.58412835	     29.14121289	     44.57150662	      0.00000000	      0.00000000
     23.16200000	     -4.01900032	     -5.52723102	      2.83732364	      0.91270892	      0.93243065	      0.49779636	      8.16423051	      4.60351763	    -17.70890965	     12.73809893	     12.73809893	     11.35537175	      5.26757777	     -3.06590223	     32.10333820	    -12.43295497	     -0.92974284	     49.96528327	     49.96528327	     11.36205430	    -18.56178524	     13.69783778	     -9.22953624	      7.41925312	      4.31894179	     29.90041407	    -17.87447626	    -10.57713198	     54.12941462	     44.72111656	      0.00000000	      0.00000000	     -4.35544870	     -7.43377871	      3.69762807	     28.59740264	     44.54613801	      0.00000000	      0.00000000
     23.17400000	     -4.01406459	     -5.53622221	      2.96052906	      0.91245113	      0.93238204	      0.49705297	      7.37684260	      4.67678291	    -17.80723319	     12.16651211	     12.16651211	     11.46882652	      5.58514964	     -3.24063962	     32.50259236	    -12.02993248	     -0.84254522	     46.88460950	     46.88460950	     11.31136311	    -18.37391547	     14.18123074	     -9.34006676	      7.51015304	      4.06706303	     31.54782481	    -17.65800828	    -10.69343933	     55.93010063	     44.68264325	      0.00000000	      0.00000000	     -5.50554635	     -7.31563826	      3.91442849	     27.84557995	     44.51293013	      0.00000000	      0.00000000
     23.18600000	     -4.13033659	     -5.50404008	      3.04069720	      0.91210251	      0.93204943	      0.49615482	      6.80364111	      4.66153235	    -17.88585886	     11.75330172	     11.75330172	     11.67240615	      5.86884281	     -3.42030319	     32.92094274	    -11.53235629	     -0.73032263	     43.66858231	     43.66858231	     11.18996965	    -17.95298269	     14.40430268	     -9.31850735	      7.56737448	      4.13797860	     33.01835558	    -17.69180483	    -10.81714350	     57.41634251	     44.65204359	      0.00000000	      0.00000000	     -6.48729476	     -7.17931499	      4.08620216	     27.31381907	     44.48363470	      0.00000000	      0.00000000
     23.19800000	     -4.23125586	     -5.50454900	      3.14888467	      0.91180838	      0.93165295	      0.49505290	      6.18764462	      4.66525673	    -18.04641737	     11.30440799	     11.30440799	     11.86140411	      6.28595016	     -3.60291965	     33.23658234	    -11.02106656	     -0.51879574	     40.36082451	     40.36082451	     10.97418070	    -17.23529857	     14.25240427	     -9.31308227	      7.67373363	      4.09790641	     34.39947690	    -17.63982483	    -10.94206972	     59.18212632	     44.61342125	      0.00000000	      0.00000000	     -7.46418744	     -7.01225677	      4.30025668	     26.82580889	     44.44908565	      0.00000000	      0.00000000
     23.21000000	     -4.34062425	     -5.56568752	      3.26849262	      0.91162128	      0.93110640	      0.49390177	      5.57777490	      4.72197896	    -18.37490785	     10.85471461	     10.85471461	     11.98874667	      6.83963465	     -4.04661659	     33.34473853	    -10.60646494	     -0.37102009	     36.72553185	     36.72553185	      9.57087463	    -16.37949375	     11.01578741	     -9.35008635	      7.83587291	      4.68728163	     34.67427252	    -18.23482065	    -11.50525908	     62.85008882	     44.60485109	      0.00000000	      0.00000000	     -8.08289290	     -6.99383384	      5.49503140	     26.48191242	     44.35766056	      0.00000000	      0.00000000
     23.22200000	     -4.49322976	     -5.58004688	      3.31576553	      0.91144843	      0.93055324	      0.49274869	      5.03756177	      4.73668781	    -18.42638213	     10.45951055	     10.45951055	     12.21818504	      7.14539738	     -4.09885705	     33.52820610	    -10.17261812	     -0.25968356	     33.42398133	     33.42398133	      9.51907394	    -14.80364997	     11.25522261	     -9.23038595	      7.91261003	      4.67007499	     36.06307002	    -18.10483415	    -11.55163404	     63.94917827	     44.58389307	      0.00000000	      0.00000000	     -8.98621504	     -6.86090387	      5.65391837	     26.12054610	     44.32840234	      0.00000000	      0.00000000
     23.23400000	     -4.54840547	     -5.68226133	      3.41773119	      0.91150974	      0.92998460	      0.49145138	      4.30198901	      4.84138705	    -18.84114982	      9.93330887	      9.93330887	     12.46570810	      7.97396347	     -4.05974100	     33.52320189	     -9.87484644	     -0.26482191	     30.16289352	     30.16289352	      9.00309495	    -12.95153469	     10.16829669	     -9.27320743	      8.10270501	      4.69517145	     36.84722070	    -18.10462238	    -11.69578342	     66.60808321	     44.57162643	      0.00000000	      0.00000000	     -9.92035285	     -6.83581791	      6.37234045	     26.24183087	     44.27851397	      0.00000000	      0.00000000
